<?xml version="1.0" encoding="utf-8"?>
<!-- Generator: Adobe Illustrator 16.0.0, SVG Export Plug-In . SVG Version: 6.00 Build 0)  -->
<!DOCTYPE svg PUBLIC "-//W3C//DTD SVG 1.1//EN" "http://www.w3.org/Graphics/SVG/1.1/DTD/svg11.dtd">
<svg version="1.1" id="Capa_1" xmlns="http://www.w3.org/2000/svg" xmlns:xlink="http://www.w3.org/1999/xlink" x="0px" y="0px"
	 width="43.875px" height="35px" viewBox="0 0 43.875 35" enable-background="new 0 0 43.875 35" xml:space="preserve">
<polygon fill="#FFFFFF" points="30.271,13.926 30.271,24.054 15.271,24.054 15.271,13.926 20.587,13.926 "/>
<g>
	<polyline fill="#FFFFFF" points="23.145,10.947 18.026,10.947 18.026,11.99 19.475,11.99 21.544,13.926 23.145,13.926 	"/>
	<polyline fill="#FFFFFF" points="22.021,10.947 27.139,10.947 27.139,11.99 25.691,11.99 23.624,13.926 22.021,13.926 	"/>
</g>
<path fill="none" stroke="#FFFFFF" stroke-miterlimit="10" d="M37.396,16.98c0,5.396-4.77,9.771-10.649,9.771H17.13
	c-5.882,0-10.65-4.375-10.65-9.771l0,0c0-5.397,4.768-9.772,10.65-9.772h9.617C32.627,7.208,37.396,11.583,37.396,16.98
	L37.396,16.98z"/>
</svg>
