<?xml version="1.0" encoding="utf-8"?>
<!-- Generator: Adobe Illustrator 16.0.0, SVG Export Plug-In . SVG Version: 6.00 Build 0)  -->
<!DOCTYPE svg PUBLIC "-//W3C//DTD SVG 1.1//EN" "http://www.w3.org/Graphics/SVG/1.1/DTD/svg11.dtd">
<svg version="1.1" id="Capa_1" xmlns="http://www.w3.org/2000/svg" xmlns:xlink="http://www.w3.org/1999/xlink" x="0px" y="0px"
	 width="43.875px" height="35px" viewBox="0 0 43.875 35" enable-background="new 0 0 43.875 35" xml:space="preserve">
<polygon fill="#F7A7F9" points="27.413,22.305 13.352,22.305 13.352,12.378 27.413,12.378 27.413,15.895 "/>
<g>
	<polyline fill="#F7A7F9" points="19.82,13.223 24.938,13.223 24.938,11.774 23.49,11.774 21.421,9.087 19.82,9.087 	"/>
	<polyline fill="#F7A7F9" points="20.944,13.223 15.826,13.223 15.826,11.774 17.273,11.774 19.341,9.087 20.944,9.087 	"/>
</g>
<g>
	<polyline fill="#F7A7F9" points="26.646,21.218 31.766,21.218 31.766,19.77 30.316,19.77 28.248,17.082 26.646,17.082 	"/>
	<polyline fill="#F7A7F9" points="27.771,21.218 22.652,21.218 22.652,19.77 24.1,19.77 26.168,17.082 27.771,17.082 	"/>
</g>
<g>
	<polyline fill="#F7A7F9" points="12.789,21.218 17.909,21.218 17.909,19.77 16.459,19.77 14.391,17.082 12.789,17.082 	"/>
	<polyline fill="#F7A7F9" points="13.914,21.218 8.795,21.218 8.795,19.77 10.242,19.77 12.311,17.082 13.914,17.082 	"/>
</g>
<path fill="none" stroke="#FFFFFF" stroke-miterlimit="10" d="M35.841,16.98c0,5.396-4.77,9.771-10.649,9.771h-9.617
	c-5.882,0-10.65-4.375-10.65-9.771l0,0c0-5.397,4.769-9.772,10.65-9.772h9.617C31.071,7.208,35.841,11.583,35.841,16.98
	L35.841,16.98z"/>
</svg>
